<?xml version="1.0" standalone="no"?>
<!DOCTYPE svg PUBLIC "-//W3C//DTD SVG 20010904//EN"
 "http://www.w3.org/TR/2001/REC-SVG-20010904/DTD/svg10.dtd">
<svg version="1.0" xmlns="http://www.w3.org/2000/svg"
 width="225.000000pt" height="225.000000pt" viewBox="0 0 225.000000 225.000000"
 preserveAspectRatio="xMidYMid meet">

<g transform="translate(0.000000,225.000000) scale(0.100000,-0.100000)"
fill="#000000" stroke="none">
<path d="M932 1658 c-7 -7 -12 -44 -12 -95 l0 -83 78 0 c103 0 112 9 112 113
l0 77 -83 0 c-51 0 -88 -5 -95 -12z"/>
<path d="M1140 1595 c0 -101 15 -115 117 -115 l73 0 0 83 c0 51 -5 88 -12 95
-7 7 -44 12 -95 12 l-83 0 0 -75z m47 49 c-3 -3 -12 -4 -19 -1 -8 3 -5 6 6 6
11 1 17 -2 13 -5z m130 -10 c-3 -3 -12 -4 -19 -1 -8 3 -5 6 6 6 11 1 17 -2 13
-5z m-123 -119 c-4 -8 -11 -12 -16 -9 -6 4 -5 10 3 15 19 12 19 11 13 -6z"/>
<path d="M920 1367 c0 -51 5 -88 12 -95 7 -7 44 -12 95 -12 l83 0 0 78 c0 103
-9 112 -113 112 l-77 0 0 -83z"/>
<path d="M1160 1430 c-16 -16 -20 -33 -20 -95 l0 -75 85 0 c102 0 105 4 105
114 l0 76 -75 0 c-62 0 -79 -4 -95 -20z"/>
<path d="M217 1163 c-4 -3 -7 -96 -7 -205 l0 -198 40 0 40 0 0 205 0 205 -33
0 c-19 0 -37 -3 -40 -7z"/>
<path d="M370 965 l0 -205 39 0 39 0 -5 50 -5 50 75 0 c116 0 177 15 210 50
24 27 27 38 27 100 0 87 -13 115 -65 140 -35 17 -61 20 -178 20 l-137 0 0
-205z m290 109 c8 -8 13 -36 13 -61 0 -65 -15 -73 -132 -73 l-96 0 0 75 0 75
101 0 c80 0 104 -3 114 -16z"/>
<path d="M820 965 l0 -205 173 2 172 3 0 30 0 30 -132 3 -133 3 0 49 0 50 84
0 c74 0 85 2 91 19 13 42 -2 51 -91 51 l-84 0 0 45 0 45 129 0 c121 0 130 1
136 20 3 11 3 29 0 40 -6 19 -15 20 -176 20 l-169 0 0 -205z"/>
<path d="M1230 965 l0 -205 158 0 c140 0 160 2 187 20 17 11 26 20 22 20 -5 0
-1 7 8 16 9 10 14 25 12 36 -3 10 -1 16 4 12 5 -3 9 38 9 96 0 56 -4 99 -9 96
-4 -3 -6 5 -4 17 6 32 -29 71 -75 85 -22 7 -100 12 -176 12 l-136 0 0 -205z
m311 108 c13 -14 30 -193 19 -193 -3 0 -10 -10 -15 -22 -9 -22 -17 -23 -127
-26 l-116 -3 -1 126 c-1 69 0 129 3 133 2 4 54 6 114 4 85 -2 114 -7 123 -19z
m37 -8 c-3 -3 -9 2 -12 12 -6 14 -5 15 5 6 7 -7 10 -15 7 -18z m-301 -259 c-1
-19 -6 -31 -10 -27 -7 7 0 61 8 61 2 0 3 -15 2 -34z"/>
<path d="M1707 1163 c-4 -3 -7 -96 -7 -205 l0 -198 35 0 35 0 1 68 c1 37 1 75
0 85 -2 15 8 17 88 17 l91 0 0 36 0 36 -87 -3 c-72 -3 -88 -1 -88 11 0 8 -4
18 -10 22 -6 5 -5 8 3 8 8 0 12 10 10 26 l-3 26 127 -2 127 -1 7 25 c13 54 8
56 -164 56 -87 0 -162 -3 -165 -7z m53 -23 c0 -5 -2 -10 -4 -10 -3 0 -8 5 -11
10 -3 6 -1 10 4 10 6 0 11 -4 11 -10z"/>
</g>
</svg>
